<svg width="41" height="40" xmlns="http://www.w3.org/2000/svg">
 <g>
  <title>Layer 1</title>
  <g id="svg_1" fill-rule="evenodd">
   <g id="svg_2" fill-rule="nonzero">
    <path id="svg_3" d="m4.5,32.26286l0,-2.13814l32,0l0,2.13765c-0.00467,1.17875 -1.02059,2.13323 -2.2752,2.13763l-27.4496,0c-1.25461,-0.0044 -2.27053,-0.95888 -2.2752,-2.13763l0,0.0005zm27.37867,-15.97117l0,12.42998l-22.75734,0l0,-12.42947c0,-5.88077 5.12267,-10.69221 11.38134,-10.69221c6.2544,0 11.376,4.81194 11.376,10.6932l0,-0.0015zm-7.5744,0.72958c-0.10501,-0.16757 -0.2965,-0.2705 -0.50347,-0.27058l-1.7904,0l2.07467,-3.13682c0.11182,-0.16928 0.11731,-0.38218 0.01434,-0.55634c-0.10299,-0.17416 -0.29829,-0.28226 -0.51034,-0.28248l-4.384,0c-0.28054,0 -0.52214,0.1879 -0.57387,0.44747l-1.16907,5.83266c-0.03222,0.16064 0.01339,0.32642 0.12443,0.45224c0.11106,0.12584 0.27598,0.19867 0.44997,0.19867l1.664,0l-0.5584,4.46819c-0.03274,0.2608 0.1356,0.50688 0.40171,0.5872c0.26611,0.08034 0.5555,-0.02757 0.69056,-0.25747l4.07787,-6.93806c0.10026,-0.17037 0.09706,-0.37731 -0.008,-0.54469l0,0z"/>
   </g>
  </g>
 </g>
</svg>